M48
INCH,TZ
T1C0.0236
T2C0.0276
T3C0.0315
T4C0.0354
T5C0.0394
T6C0.0433
T7C0.0579
T8C0.0866
T9C0.0670
T10C0.0689
T11C0.1200
T12C0.1570
%
G90
G05
T1
X40512Y-35315
X41954Y-34424
X42623Y-44700
X46678Y-34897
X47269Y-34897
X47820Y-34857
X48371Y-34818
X50655Y-42456
X50655Y-41944
X50658Y-42968
X50663Y-43479
X53346Y-37697
X53607Y-30605
X54080Y-30802
X54592Y-30605
X55103Y-30723
X55615Y-30566
X56048Y-30960
X56403Y-32219
X56442Y-30566
X56836Y-30920
X60812Y-30330
X61363Y-30330
X61875Y-30330
X61934Y-45133
X62061Y-44586
X62387Y-30330
X62564Y-44680
X62662Y-30842
X62709Y-44007
X63178Y-44211
X63253Y-30566
X63410Y-31235
X63765Y-43637
X63894Y-44225
X64485Y-43538
X67387Y-48282
X67781Y-47889
X68017Y-49660
X68056Y-49070
X68194Y-48361
X68401Y-30134
X68686Y-49621
X68911Y-30096
X69119Y-30723
X69690Y-30095
X69867Y-30723
X70477Y-30458
X70536Y-31156
X75418Y-29857
X75969Y-29857
X76206Y-52101
X76521Y-29857
X76836Y-51590
X76836Y-52141
X77032Y-29887
X77466Y-51668
X77544Y-29887
X78089Y-29866
X78606Y-29848
X78725Y-53007
X78725Y-53597
X79158Y-29887
X79237Y-24739
X79255Y-53839
X79749Y-52968
X80143Y-53401
X80536Y-52968
X80930Y-53401
X81324Y-53007
X97240Y-24863
X97480Y-25315
X99473Y-25527
X102229Y-25881
X107977Y-28322
X108410Y-28637
X108844Y-29109
X110655Y-28361
X113307Y-52835
X119631Y-44936
X112505Y-24838
X112505Y-25428
T2
X90753Y-23066
X92753Y-23066
X118142Y-27657
X106332Y-20822
X108332Y-20822
X116142Y-27657
X106332Y-21708
X108332Y-21708
X106332Y-22594
X108332Y-22594
X125891Y-24149
X125891Y-26149
X126777Y-24149
X126777Y-26149
X119094Y-27657
X121094Y-27657
T3
X52958Y-23558
X52958Y-26558
X75595Y-24345
X75595Y-27345
X22446Y-23952
X22446Y-26952
X60832Y-24345
X60832Y-27345
X79532Y-22771
X39178Y-23164
X39178Y-26164
X79532Y-25771
X33273Y-23558
X76580Y-23952
X76580Y-26952
X97438Y-23693
X33273Y-26558
X54926Y-22771
X54926Y-25771
X97438Y-26693
X98438Y-23693
X98438Y-26693
X99438Y-23693
X99438Y-26693
X100438Y-23693
X100438Y-26693
X101438Y-23693
X101438Y-26693
X102438Y-23693
X102438Y-26693
X103438Y-23693
X103438Y-26693
X104438Y-23693
X104438Y-26693
X105438Y-23693
X105438Y-26693
X106438Y-23693
X106438Y-26693
X107438Y-23693
X107438Y-26693
X108438Y-23693
X108438Y-26693
X109438Y-23693
X109438Y-26693
X110438Y-23693
X110438Y-26693
X26383Y-24345
X26383Y-27345
X40162Y-22771
X40162Y-25771
X58863Y-23164
X58863Y-26164
X48036Y-23558
X48036Y-26558
X82485Y-23558
X82485Y-26558
X46068Y-24345
X46068Y-27345
X71658Y-23952
X71658Y-26952
X53942Y-23164
X53942Y-26164
X62800Y-23558
X62800Y-26558
X29336Y-23164
X29336Y-26164
X35241Y-22771
X35241Y-25771
X69690Y-22771
X69690Y-25771
X77564Y-23558
X77564Y-26558
X41147Y-24345
X41147Y-27345
X81501Y-23952
X81501Y-26952
X28351Y-23558
X28351Y-26558
X42131Y-23952
X49021Y-23164
X49021Y-26164
X42131Y-26952
X110399Y-19594
X110399Y-22594
X50005Y-22771
X50005Y-25771
X68706Y-23164
X68706Y-26164
X83469Y-23164
X83469Y-26164
X34257Y-23164
X34257Y-26164
X55910Y-24345
X55910Y-27345
X31304Y-24345
X31304Y-27345
X63784Y-23164
X63784Y-26164
X37210Y-23952
X37210Y-26952
X109316Y-19594
X43115Y-23558
X43115Y-26558
X25399Y-22771
X25399Y-25771
X50989Y-24345
X50989Y-27345
X66737Y-23952
X66737Y-26952
X23430Y-23558
X23430Y-26558
X74611Y-22771
X74611Y-25771
X97505Y-21432
X97505Y-22416
X24414Y-23164
X24414Y-26164
X38194Y-23558
X38194Y-26558
X32288Y-23952
X32288Y-26952
X57879Y-23558
X57879Y-26558
X116344Y-23609
X116344Y-26609
X117344Y-23609
X117344Y-26609
X118344Y-23609
X118344Y-26609
X119344Y-23609
X120344Y-23609
X120344Y-26609
X121344Y-23609
X121344Y-26609
X122344Y-23609
X122344Y-26609
X123344Y-23609
X61816Y-23952
X123344Y-26609
X124344Y-23609
X124344Y-26609
X47052Y-23952
X47052Y-26952
X61816Y-26952
X119344Y-26609
X80517Y-24345
X80517Y-27345
X44099Y-23164
X44099Y-26164
X65753Y-24345
X65753Y-27345
X73627Y-23164
X73627Y-26164
X27367Y-23952
X27367Y-26952
X45084Y-22771
X45084Y-25771
X102446Y-27771
X104414Y-27771
X104395Y-20684
X104395Y-22653
X103410Y-21412
X103410Y-22397
X64769Y-25771
X99521Y-21865
X101442Y-21865
X56895Y-23952
X56895Y-26952
X64769Y-22771
X67721Y-23558
X67721Y-26558
X114277Y-24247
X72643Y-23558
X72643Y-26558
X36225Y-27345
X70674Y-24345
X70674Y-27345
X21462Y-24345
X21462Y-27345
X59847Y-25771
X109316Y-22594
X114277Y-26216
X30320Y-22771
X30320Y-25771
X36225Y-24345
X51973Y-23952
X51973Y-26952
X59847Y-22771
X78548Y-23164
X78548Y-26164
T4
X123529Y-21393
X124529Y-21393
X121462Y-21393
X122462Y-21393
T5
X90753Y-24723
X90753Y-25723
X91753Y-24723
X91753Y-25723
X92753Y-24723
X92753Y-25723
X121508Y-18602
X122508Y-18602
X123508Y-18602
X124508Y-18602
T6
X90458Y-19818
X90458Y-21590
X93017Y-19818
X93017Y-21590
X84946Y-19818
X84946Y-21590
X87505Y-19818
X87505Y-21590
T7
X78185Y-46810
X39326Y-38735
X41294Y-38538
X41310Y-38310
X78701Y-46235
X80669Y-46038
X80685Y-45810
X99326Y-38735
X101294Y-38538
X101310Y-38310
X115685Y-46810
X116201Y-46235
X118169Y-46038
X118185Y-45810
X72560Y-31810
X73076Y-31235
X75044Y-31038
X75060Y-30810
X67873Y-61810
X70357Y-61038
X70373Y-60810
X21935Y-39310
X22451Y-38735
X24419Y-38538
X24435Y-38310
X102560Y-31810
X103076Y-31235
X105044Y-31038
X125060Y-54310
X98810Y-39310
X125576Y-53735
X127544Y-53538
X127560Y-53310
X61310Y-39310
X105060Y-30810
X91310Y-39310
X91826Y-38735
X93794Y-38538
X93810Y-38310
X93185Y-46810
X93701Y-46235
X95669Y-46038
X95685Y-45810
X118498Y-54310
X119013Y-53735
X120982Y-53538
X120998Y-53310
X123185Y-39310
X123701Y-38735
X38810Y-39310
X125669Y-38538
X125685Y-38310
X59435Y-54310
X59951Y-53735
X61919Y-53538
X61935Y-53310
X104435Y-54310
X104951Y-53735
X106919Y-53538
X106935Y-53310
X61826Y-38735
X63794Y-38538
X63810Y-38310
X33185Y-46810
X33701Y-46235
X35669Y-46038
X35685Y-45810
X68388Y-61235
X20998Y-54310
X21513Y-53735
X23482Y-53538
X23498Y-53310
X125060Y-31810
X125576Y-31235
X127544Y-31038
X127560Y-30810
X57560Y-31810
X58076Y-31235
X60060Y-30810
X120373Y-46810
X120888Y-46235
X122857Y-46038
X122873Y-45810
X30373Y-61810
X30888Y-61235
X32857Y-61038
X32873Y-60810
X80060Y-31810
X80576Y-31235
X82544Y-31038
X82560Y-30810
X76310Y-39310
X76826Y-38735
X78794Y-38538
X78810Y-38310
X110060Y-31810
X110576Y-31235
X112544Y-31038
X112560Y-30810
X114748Y-54310
X115263Y-53735
X117232Y-53538
X117248Y-53310
X27560Y-31810
X28076Y-31235
X30044Y-31038
X30060Y-30810
X44435Y-54310
X44951Y-53735
X46919Y-53538
X46935Y-53310
X105373Y-61810
X105888Y-61235
X107857Y-61038
X108185Y-46810
X60044Y-31038
X108701Y-46235
X110669Y-46038
X110685Y-45810
X70685Y-46810
X71201Y-46235
X73169Y-46038
X73185Y-45810
X124123Y-43060
X124638Y-42485
X126607Y-42288
X126623Y-42060
X113810Y-39310
X107873Y-60810
X50060Y-31810
X50576Y-31235
X52544Y-31038
X52560Y-30810
X48185Y-46810
X48701Y-46235
X50669Y-46038
X50685Y-45810
X89435Y-54310
X89951Y-53735
X91919Y-53538
X91935Y-53310
X31310Y-39310
X31826Y-38735
X33794Y-38538
X33810Y-38310
X36935Y-54310
X37451Y-53735
X39419Y-53538
X39435Y-53310
X53810Y-39310
X54326Y-38735
X56294Y-38538
X56310Y-38310
X124123Y-61810
X124638Y-61235
X126607Y-61038
X126623Y-60810
X114326Y-38735
X95060Y-31810
X95576Y-31235
X97544Y-31038
X97560Y-30810
X65060Y-31810
X65576Y-31235
X67544Y-31038
X67560Y-30810
X22873Y-46810
X23388Y-46235
X25357Y-46038
X25373Y-45810
X87560Y-31810
X88076Y-31235
X90044Y-31038
X90060Y-30810
X83810Y-39310
X84326Y-38735
X86294Y-38538
X86310Y-38310
X85685Y-46810
X86201Y-46235
X88169Y-46038
X88185Y-45810
X106310Y-39310
X106826Y-38735
X108794Y-38538
X108810Y-38310
X35060Y-31810
X35576Y-31235
X37544Y-31038
X37560Y-30810
X20998Y-61810
X21513Y-61235
X23482Y-61038
X23498Y-60810
X121310Y-31810
X121826Y-31235
X123794Y-31038
X68810Y-39310
X69326Y-38735
X71294Y-38538
X71310Y-38310
X20060Y-31810
X55685Y-46810
X56201Y-46235
X58169Y-46038
X58185Y-45810
X74435Y-54310
X74951Y-53735
X76919Y-53538
X76935Y-53310
X100685Y-46810
X101201Y-46235
X103169Y-46038
X103185Y-45810
X66935Y-54310
X67451Y-53735
X116294Y-38538
X20576Y-31235
X22544Y-31038
X22560Y-30810
X95998Y-61810
X96513Y-61235
X98482Y-61038
X98498Y-60810
X42560Y-31810
X43076Y-31235
X45044Y-31038
X45060Y-30810
X40685Y-46810
X41201Y-46235
X43169Y-46038
X43185Y-45810
X63185Y-46810
X63701Y-46235
X65669Y-46038
X65685Y-45810
X81935Y-54310
X82451Y-53735
X84419Y-53538
X84435Y-53310
X39748Y-61810
X40263Y-61235
X42232Y-61038
X42248Y-60810
X117560Y-31810
X118076Y-31235
X120060Y-30810
X29435Y-54310
X29951Y-53735
X31919Y-53538
X31935Y-53310
X116310Y-38310
X120044Y-31038
X69419Y-53538
X69435Y-53310
X123810Y-30810
X46310Y-39310
X46826Y-38735
X48794Y-38538
X48810Y-38310
X51935Y-54310
X52451Y-53735
X54419Y-53538
X54435Y-53310
X114748Y-61810
X115263Y-61235
X117232Y-61038
X117248Y-60810
X96935Y-54310
X97451Y-53735
X99419Y-53538
X99435Y-53310
X24748Y-54310
X25263Y-53735
X27232Y-53538
X27248Y-53310
T8
X128435Y-19685
X19685Y-27185
X19685Y-19685
X119998Y-37498
X119998Y-59998
X74998Y-37498
X74998Y-59998
X28123Y-37498
X128435Y-27185
X28123Y-59998
T9
X123623Y-44060
X127623Y-44060
T10
X19560Y-32810
X23560Y-32810
X77685Y-47810
X81685Y-47810
X95498Y-62810
X99498Y-62810
X42060Y-32810
X46060Y-32810
X40185Y-47810
X44185Y-47810
X98310Y-40310
X102310Y-40310
X115185Y-47810
X119185Y-47810
X62685Y-47810
X66685Y-47810
X81435Y-55310
X85435Y-55310
X39248Y-62810
X43248Y-62810
X117060Y-32810
X121060Y-32810
X28935Y-55310
X72060Y-32810
X76060Y-32810
X32935Y-55310
X45810Y-40310
X49810Y-40310
X51435Y-55310
X55435Y-55310
X114248Y-62810
X118248Y-62810
X96435Y-55310
X100435Y-55310
X24248Y-55310
X38310Y-40310
X42310Y-40310
X124560Y-55310
X128560Y-55310
X60810Y-40310
X67373Y-62810
X90810Y-40310
X94810Y-40310
X103935Y-55310
X107935Y-55310
X120810Y-32810
X21435Y-40310
X25435Y-40310
X92685Y-47810
X117998Y-55310
X121998Y-55310
X122685Y-40310
X126685Y-40310
X24498Y-62810
X106060Y-32810
X20498Y-62810
X96685Y-47810
X124810Y-32810
X68310Y-40310
X72310Y-40310
X28248Y-55310
X71373Y-62810
X102060Y-32810
X58935Y-55310
X62935Y-55310
X64810Y-40310
X32685Y-47810
X36685Y-47810
X20498Y-55310
X24498Y-55310
X124560Y-32810
X128560Y-32810
X57060Y-32810
X61060Y-32810
X119873Y-47810
X123873Y-47810
X29873Y-62810
X33873Y-62810
X107685Y-47810
X111685Y-47810
X70185Y-47810
X79560Y-32810
X83560Y-32810
X75810Y-40310
X79810Y-40310
X109560Y-32810
X113560Y-32810
X114248Y-55310
X118248Y-55310
X27060Y-32810
X31060Y-32810
X43935Y-55310
X74185Y-47810
X113310Y-40310
X117310Y-40310
X64560Y-32810
X68560Y-32810
X22373Y-47810
X26373Y-47810
X87060Y-32810
X47935Y-55310
X104873Y-62810
X108873Y-62810
X49560Y-32810
X53560Y-32810
X47685Y-47810
X51685Y-47810
X88935Y-55310
X92935Y-55310
X30810Y-40310
X34810Y-40310
X36435Y-55310
X40435Y-55310
X53310Y-40310
X57310Y-40310
X123623Y-62810
X127623Y-62810
X94560Y-32810
X98560Y-32810
X91060Y-32810
X83310Y-40310
X87310Y-40310
X85185Y-47810
X89185Y-47810
X105810Y-40310
X109810Y-40310
X34560Y-32810
X38560Y-32810
X55185Y-47810
X59185Y-47810
X73935Y-55310
X77935Y-55310
X100185Y-47810
X104185Y-47810
X66435Y-55310
X70435Y-55310
T11
X49688Y-65560
X89058Y-65560
X115298Y-52560
X21548Y-52560
X124698Y-52560
X30948Y-52560
X128373Y-39360
X128373Y-48760
X117173Y-45060
X126573Y-45060
X118110Y-30060
X127510Y-30060
T12
X68435Y-55310
X21560Y-32810
X97498Y-62810
X44060Y-32810
X42185Y-47810
X64685Y-47810
X83435Y-55310
X41248Y-62810
X119060Y-32810
X30935Y-55310
X47810Y-40310
X116248Y-62810
X98435Y-55310
X21548Y-58560
X26248Y-55310
X30948Y-58560
X40310Y-40310
X79685Y-47810
X100310Y-40310
X117185Y-47810
X74060Y-32810
X49688Y-59560
X69373Y-62810
X89058Y-59560
X104060Y-32810
X92810Y-40310
X119998Y-55310
X105935Y-55310
X122810Y-32810
X23435Y-40310
X94685Y-47810
X124685Y-40310
X60935Y-55310
X22498Y-62810
X115298Y-58560
X124698Y-58560
X118110Y-36060
X127510Y-36060
X70310Y-40310
X53435Y-55310
X126560Y-55310
X62810Y-40310
X109685Y-47810
X72185Y-47810
X34685Y-47810
X22498Y-55310
X126560Y-32810
X122373Y-39360
X122373Y-48760
X59060Y-32810
X117173Y-51060
X121873Y-47810
X126573Y-51060
X31873Y-62810
X125623Y-44060
X81560Y-32810
X77810Y-40310
X111560Y-32810
X66560Y-32810
X116248Y-55310
X29060Y-32810
X45935Y-55310
X24373Y-47810
X89060Y-32810
X85310Y-40310
X87185Y-47810
X106873Y-62810
X51560Y-32810
X107810Y-40310
X49685Y-47810
X115310Y-40310
X36560Y-32810
X90935Y-55310
X32810Y-40310
X38435Y-55310
X57185Y-47810
X75935Y-55310
X55310Y-40310
X125623Y-62810
X102185Y-47810
X96560Y-32810
T2
G00X112249Y-18204
M15
G01X112249Y-18676
M16
G05
G00X113056Y-20428
M15
G01X113056Y-20428
M16
G05
G00X113371Y-19956
M15
G01X113371Y-19956
M16
G05
G00X113686Y-20428
M15
G01X113686Y-20428
M16
G05
G00X114001Y-19956
M15
G01X114001Y-19956
M16
G05
G00X114316Y-20428
M15
G01X114316Y-20428
M16
G05
G00X115123Y-18204
M15
G01X115123Y-18676
M16
G05
T0
M30
