G04 #@! TF.GenerationSoftware,KiCad,Pcbnew,(5.1.0-0)*
G04 #@! TF.CreationDate,2019-05-29T21:10:33+01:00*
G04 #@! TF.ProjectId,tartan_bottom,74617274-616e-45f6-926f-74746f6d2e6b,V1.0*
G04 #@! TF.SameCoordinates,Original*
G04 #@! TF.FileFunction,Legend,Top*
G04 #@! TF.FilePolarity,Positive*
%FSLAX46Y46*%
G04 Gerber Fmt 4.6, Leading zero omitted, Abs format (unit mm)*
G04 Created by KiCad (PCBNEW (5.1.0-0)) date 2019-05-29 21:10:33*
%MOMM*%
%LPD*%
G04 APERTURE LIST*
%ADD10C,0.200000*%
%ADD11C,4.200000*%
G04 APERTURE END LIST*
D10*
X48702380Y-124802380D02*
X48702380Y-123802380D01*
X48940476Y-123802380D01*
X49083333Y-123850000D01*
X49178571Y-123945238D01*
X49226190Y-124040476D01*
X49273809Y-124230952D01*
X49273809Y-124373809D01*
X49226190Y-124564285D01*
X49178571Y-124659523D01*
X49083333Y-124754761D01*
X48940476Y-124802380D01*
X48702380Y-124802380D01*
X50083333Y-124754761D02*
X49988095Y-124802380D01*
X49797619Y-124802380D01*
X49702380Y-124754761D01*
X49654761Y-124659523D01*
X49654761Y-124278571D01*
X49702380Y-124183333D01*
X49797619Y-124135714D01*
X49988095Y-124135714D01*
X50083333Y-124183333D01*
X50130952Y-124278571D01*
X50130952Y-124373809D01*
X49654761Y-124469047D01*
X50511904Y-124754761D02*
X50607142Y-124802380D01*
X50797619Y-124802380D01*
X50892857Y-124754761D01*
X50940476Y-124659523D01*
X50940476Y-124611904D01*
X50892857Y-124516666D01*
X50797619Y-124469047D01*
X50654761Y-124469047D01*
X50559523Y-124421428D01*
X50511904Y-124326190D01*
X50511904Y-124278571D01*
X50559523Y-124183333D01*
X50654761Y-124135714D01*
X50797619Y-124135714D01*
X50892857Y-124183333D01*
X51369047Y-124802380D02*
X51369047Y-124135714D01*
X51369047Y-123802380D02*
X51321428Y-123850000D01*
X51369047Y-123897619D01*
X51416666Y-123850000D01*
X51369047Y-123802380D01*
X51369047Y-123897619D01*
X52273809Y-124135714D02*
X52273809Y-124945238D01*
X52226190Y-125040476D01*
X52178571Y-125088095D01*
X52083333Y-125135714D01*
X51940476Y-125135714D01*
X51845238Y-125088095D01*
X52273809Y-124754761D02*
X52178571Y-124802380D01*
X51988095Y-124802380D01*
X51892857Y-124754761D01*
X51845238Y-124707142D01*
X51797619Y-124611904D01*
X51797619Y-124326190D01*
X51845238Y-124230952D01*
X51892857Y-124183333D01*
X51988095Y-124135714D01*
X52178571Y-124135714D01*
X52273809Y-124183333D01*
X52749999Y-124135714D02*
X52749999Y-124802380D01*
X52749999Y-124230952D02*
X52797619Y-124183333D01*
X52892857Y-124135714D01*
X53035714Y-124135714D01*
X53130952Y-124183333D01*
X53178571Y-124278571D01*
X53178571Y-124802380D01*
X54035714Y-124754761D02*
X53940476Y-124802380D01*
X53749999Y-124802380D01*
X53654761Y-124754761D01*
X53607142Y-124659523D01*
X53607142Y-124278571D01*
X53654761Y-124183333D01*
X53749999Y-124135714D01*
X53940476Y-124135714D01*
X54035714Y-124183333D01*
X54083333Y-124278571D01*
X54083333Y-124373809D01*
X53607142Y-124469047D01*
X54940476Y-124802380D02*
X54940476Y-123802380D01*
X54940476Y-124754761D02*
X54845238Y-124802380D01*
X54654761Y-124802380D01*
X54559523Y-124754761D01*
X54511904Y-124707142D01*
X54464285Y-124611904D01*
X54464285Y-124326190D01*
X54511904Y-124230952D01*
X54559523Y-124183333D01*
X54654761Y-124135714D01*
X54845238Y-124135714D01*
X54940476Y-124183333D01*
X56607142Y-124802380D02*
X56607142Y-124278571D01*
X56559523Y-124183333D01*
X56464285Y-124135714D01*
X56273809Y-124135714D01*
X56178571Y-124183333D01*
X56607142Y-124754761D02*
X56511904Y-124802380D01*
X56273809Y-124802380D01*
X56178571Y-124754761D01*
X56130952Y-124659523D01*
X56130952Y-124564285D01*
X56178571Y-124469047D01*
X56273809Y-124421428D01*
X56511904Y-124421428D01*
X56607142Y-124373809D01*
X57083333Y-124135714D02*
X57083333Y-124802380D01*
X57083333Y-124230952D02*
X57130952Y-124183333D01*
X57226190Y-124135714D01*
X57369047Y-124135714D01*
X57464285Y-124183333D01*
X57511904Y-124278571D01*
X57511904Y-124802380D01*
X58416666Y-124802380D02*
X58416666Y-123802380D01*
X58416666Y-124754761D02*
X58321428Y-124802380D01*
X58130952Y-124802380D01*
X58035714Y-124754761D01*
X57988095Y-124707142D01*
X57940476Y-124611904D01*
X57940476Y-124326190D01*
X57988095Y-124230952D01*
X58035714Y-124183333D01*
X58130952Y-124135714D01*
X58321428Y-124135714D01*
X58416666Y-124183333D01*
X60083333Y-124802380D02*
X60083333Y-124278571D01*
X60035714Y-124183333D01*
X59940476Y-124135714D01*
X59749999Y-124135714D01*
X59654761Y-124183333D01*
X60083333Y-124754761D02*
X59988095Y-124802380D01*
X59749999Y-124802380D01*
X59654761Y-124754761D01*
X59607142Y-124659523D01*
X59607142Y-124564285D01*
X59654761Y-124469047D01*
X59749999Y-124421428D01*
X59988095Y-124421428D01*
X60083333Y-124373809D01*
X60511904Y-124754761D02*
X60607142Y-124802380D01*
X60797619Y-124802380D01*
X60892857Y-124754761D01*
X60940476Y-124659523D01*
X60940476Y-124611904D01*
X60892857Y-124516666D01*
X60797619Y-124469047D01*
X60654761Y-124469047D01*
X60559523Y-124421428D01*
X60511904Y-124326190D01*
X60511904Y-124278571D01*
X60559523Y-124183333D01*
X60654761Y-124135714D01*
X60797619Y-124135714D01*
X60892857Y-124183333D01*
X61321428Y-124754761D02*
X61416666Y-124802380D01*
X61607142Y-124802380D01*
X61702380Y-124754761D01*
X61749999Y-124659523D01*
X61749999Y-124611904D01*
X61702380Y-124516666D01*
X61607142Y-124469047D01*
X61464285Y-124469047D01*
X61369047Y-124421428D01*
X61321428Y-124326190D01*
X61321428Y-124278571D01*
X61369047Y-124183333D01*
X61464285Y-124135714D01*
X61607142Y-124135714D01*
X61702380Y-124183333D01*
X62559523Y-124754761D02*
X62464285Y-124802380D01*
X62273809Y-124802380D01*
X62178571Y-124754761D01*
X62130952Y-124659523D01*
X62130952Y-124278571D01*
X62178571Y-124183333D01*
X62273809Y-124135714D01*
X62464285Y-124135714D01*
X62559523Y-124183333D01*
X62607142Y-124278571D01*
X62607142Y-124373809D01*
X62130952Y-124469047D01*
X63035714Y-124802380D02*
X63035714Y-124135714D01*
X63035714Y-124230952D02*
X63083333Y-124183333D01*
X63178571Y-124135714D01*
X63321428Y-124135714D01*
X63416666Y-124183333D01*
X63464285Y-124278571D01*
X63464285Y-124802380D01*
X63464285Y-124278571D02*
X63511904Y-124183333D01*
X63607142Y-124135714D01*
X63749999Y-124135714D01*
X63845238Y-124183333D01*
X63892857Y-124278571D01*
X63892857Y-124802380D01*
X64369047Y-124802380D02*
X64369047Y-123802380D01*
X64369047Y-124183333D02*
X64464285Y-124135714D01*
X64654761Y-124135714D01*
X64749999Y-124183333D01*
X64797619Y-124230952D01*
X64845238Y-124326190D01*
X64845238Y-124611904D01*
X64797619Y-124707142D01*
X64749999Y-124754761D01*
X64654761Y-124802380D01*
X64464285Y-124802380D01*
X64369047Y-124754761D01*
X65416666Y-124802380D02*
X65321428Y-124754761D01*
X65273809Y-124659523D01*
X65273809Y-123802380D01*
X66178571Y-124754761D02*
X66083333Y-124802380D01*
X65892857Y-124802380D01*
X65797619Y-124754761D01*
X65749999Y-124659523D01*
X65749999Y-124278571D01*
X65797619Y-124183333D01*
X65892857Y-124135714D01*
X66083333Y-124135714D01*
X66178571Y-124183333D01*
X66226190Y-124278571D01*
X66226190Y-124373809D01*
X65749999Y-124469047D01*
X67083333Y-124802380D02*
X67083333Y-123802380D01*
X67083333Y-124754761D02*
X66988095Y-124802380D01*
X66797619Y-124802380D01*
X66702380Y-124754761D01*
X66654761Y-124707142D01*
X66607142Y-124611904D01*
X66607142Y-124326190D01*
X66654761Y-124230952D01*
X66702380Y-124183333D01*
X66797619Y-124135714D01*
X66988095Y-124135714D01*
X67083333Y-124183333D01*
X68321428Y-124802380D02*
X68321428Y-123802380D01*
X68321428Y-124183333D02*
X68416666Y-124135714D01*
X68607142Y-124135714D01*
X68702380Y-124183333D01*
X68750000Y-124230952D01*
X68797619Y-124326190D01*
X68797619Y-124611904D01*
X68750000Y-124707142D01*
X68702380Y-124754761D01*
X68607142Y-124802380D01*
X68416666Y-124802380D01*
X68321428Y-124754761D01*
X69130952Y-124135714D02*
X69369047Y-124802380D01*
X69607142Y-124135714D02*
X69369047Y-124802380D01*
X69273809Y-125040476D01*
X69226190Y-125088095D01*
X69130952Y-125135714D01*
X70940476Y-124326190D02*
X70940476Y-124802380D01*
X70607142Y-123802380D02*
X70940476Y-124326190D01*
X71273809Y-123802380D01*
X71607142Y-124802380D02*
X71607142Y-124135714D01*
X71607142Y-123802380D02*
X71559523Y-123850000D01*
X71607142Y-123897619D01*
X71654761Y-123850000D01*
X71607142Y-123802380D01*
X71607142Y-123897619D01*
X72511904Y-124802380D02*
X72511904Y-124278571D01*
X72464285Y-124183333D01*
X72369047Y-124135714D01*
X72178571Y-124135714D01*
X72083333Y-124183333D01*
X72511904Y-124754761D02*
X72416666Y-124802380D01*
X72178571Y-124802380D01*
X72083333Y-124754761D01*
X72035714Y-124659523D01*
X72035714Y-124564285D01*
X72083333Y-124469047D01*
X72178571Y-124421428D01*
X72416666Y-124421428D01*
X72511904Y-124373809D01*
X72988095Y-124135714D02*
X72988095Y-124802380D01*
X72988095Y-124230952D02*
X73035714Y-124183333D01*
X73130952Y-124135714D01*
X73273809Y-124135714D01*
X73369047Y-124183333D01*
X73416666Y-124278571D01*
X73416666Y-124802380D01*
X74321428Y-124754761D02*
X74226190Y-124802380D01*
X74035714Y-124802380D01*
X73940476Y-124754761D01*
X73892857Y-124707142D01*
X73845238Y-124611904D01*
X73845238Y-124326190D01*
X73892857Y-124230952D01*
X73940476Y-124183333D01*
X74035714Y-124135714D01*
X74226190Y-124135714D01*
X74321428Y-124183333D01*
X75178571Y-124802380D02*
X75178571Y-124278571D01*
X75130952Y-124183333D01*
X75035714Y-124135714D01*
X74845238Y-124135714D01*
X74749999Y-124183333D01*
X75178571Y-124754761D02*
X75083333Y-124802380D01*
X74845238Y-124802380D01*
X74749999Y-124754761D01*
X74702380Y-124659523D01*
X74702380Y-124564285D01*
X74749999Y-124469047D01*
X74845238Y-124421428D01*
X75083333Y-124421428D01*
X75178571Y-124373809D01*
X75654761Y-124802380D02*
X75654761Y-124135714D01*
X75654761Y-124326190D02*
X75702380Y-124230952D01*
X75749999Y-124183333D01*
X75845238Y-124135714D01*
X75940476Y-124135714D01*
X55821428Y-126502380D02*
X55821428Y-125835714D01*
X55821428Y-125502380D02*
X55773809Y-125550000D01*
X55821428Y-125597619D01*
X55869047Y-125550000D01*
X55821428Y-125502380D01*
X55821428Y-125597619D01*
X56297619Y-125835714D02*
X56297619Y-126502380D01*
X56297619Y-125930952D02*
X56345238Y-125883333D01*
X56440476Y-125835714D01*
X56583333Y-125835714D01*
X56678571Y-125883333D01*
X56726190Y-125978571D01*
X56726190Y-126502380D01*
X58535714Y-126407142D02*
X58488095Y-126454761D01*
X58345238Y-126502380D01*
X58250000Y-126502380D01*
X58107142Y-126454761D01*
X58011904Y-126359523D01*
X57964285Y-126264285D01*
X57916666Y-126073809D01*
X57916666Y-125930952D01*
X57964285Y-125740476D01*
X58011904Y-125645238D01*
X58107142Y-125550000D01*
X58250000Y-125502380D01*
X58345238Y-125502380D01*
X58488095Y-125550000D01*
X58535714Y-125597619D01*
X59392857Y-126502380D02*
X59392857Y-125978571D01*
X59345238Y-125883333D01*
X59250000Y-125835714D01*
X59059523Y-125835714D01*
X58964285Y-125883333D01*
X59392857Y-126454761D02*
X59297619Y-126502380D01*
X59059523Y-126502380D01*
X58964285Y-126454761D01*
X58916666Y-126359523D01*
X58916666Y-126264285D01*
X58964285Y-126169047D01*
X59059523Y-126121428D01*
X59297619Y-126121428D01*
X59392857Y-126073809D01*
X59869047Y-126502380D02*
X59869047Y-125835714D01*
X59869047Y-125930952D02*
X59916666Y-125883333D01*
X60011904Y-125835714D01*
X60154761Y-125835714D01*
X60250000Y-125883333D01*
X60297619Y-125978571D01*
X60297619Y-126502380D01*
X60297619Y-125978571D02*
X60345238Y-125883333D01*
X60440476Y-125835714D01*
X60583333Y-125835714D01*
X60678571Y-125883333D01*
X60726190Y-125978571D01*
X60726190Y-126502380D01*
X61202380Y-126502380D02*
X61202380Y-125502380D01*
X61202380Y-125883333D02*
X61297619Y-125835714D01*
X61488095Y-125835714D01*
X61583333Y-125883333D01*
X61630952Y-125930952D01*
X61678571Y-126026190D01*
X61678571Y-126311904D01*
X61630952Y-126407142D01*
X61583333Y-126454761D01*
X61488095Y-126502380D01*
X61297619Y-126502380D01*
X61202380Y-126454761D01*
X62107142Y-126502380D02*
X62107142Y-125835714D01*
X62107142Y-126026190D02*
X62154761Y-125930952D01*
X62202380Y-125883333D01*
X62297619Y-125835714D01*
X62392857Y-125835714D01*
X62726190Y-126502380D02*
X62726190Y-125835714D01*
X62726190Y-125502380D02*
X62678571Y-125550000D01*
X62726190Y-125597619D01*
X62773809Y-125550000D01*
X62726190Y-125502380D01*
X62726190Y-125597619D01*
X63630952Y-126502380D02*
X63630952Y-125502380D01*
X63630952Y-126454761D02*
X63535714Y-126502380D01*
X63345238Y-126502380D01*
X63250000Y-126454761D01*
X63202380Y-126407142D01*
X63154761Y-126311904D01*
X63154761Y-126026190D01*
X63202380Y-125930952D01*
X63250000Y-125883333D01*
X63345238Y-125835714D01*
X63535714Y-125835714D01*
X63630952Y-125883333D01*
X64535714Y-125835714D02*
X64535714Y-126645238D01*
X64488095Y-126740476D01*
X64440476Y-126788095D01*
X64345238Y-126835714D01*
X64202380Y-126835714D01*
X64107142Y-126788095D01*
X64535714Y-126454761D02*
X64440476Y-126502380D01*
X64250000Y-126502380D01*
X64154761Y-126454761D01*
X64107142Y-126407142D01*
X64059523Y-126311904D01*
X64059523Y-126026190D01*
X64107142Y-125930952D01*
X64154761Y-125883333D01*
X64250000Y-125835714D01*
X64440476Y-125835714D01*
X64535714Y-125883333D01*
X65392857Y-126454761D02*
X65297619Y-126502380D01*
X65107142Y-126502380D01*
X65011904Y-126454761D01*
X64964285Y-126359523D01*
X64964285Y-125978571D01*
X65011904Y-125883333D01*
X65107142Y-125835714D01*
X65297619Y-125835714D01*
X65392857Y-125883333D01*
X65440476Y-125978571D01*
X65440476Y-126073809D01*
X64964285Y-126169047D01*
X65916666Y-126454761D02*
X65916666Y-126502380D01*
X65869047Y-126597619D01*
X65821428Y-126645238D01*
X67107142Y-125502380D02*
X67107142Y-126311904D01*
X67154761Y-126407142D01*
X67202380Y-126454761D01*
X67297619Y-126502380D01*
X67488095Y-126502380D01*
X67583333Y-126454761D01*
X67630952Y-126407142D01*
X67678571Y-126311904D01*
X67678571Y-125502380D01*
X68154761Y-126502380D02*
X68154761Y-125502380D01*
X68726190Y-126502380D02*
X68297619Y-125930952D01*
X68726190Y-125502380D02*
X68154761Y-126073809D01*
X57797619Y-128950000D02*
X57702380Y-128902380D01*
X57559523Y-128902380D01*
X57416666Y-128950000D01*
X57321428Y-129045238D01*
X57273809Y-129140476D01*
X57226190Y-129330952D01*
X57226190Y-129473809D01*
X57273809Y-129664285D01*
X57321428Y-129759523D01*
X57416666Y-129854761D01*
X57559523Y-129902380D01*
X57654761Y-129902380D01*
X57797619Y-129854761D01*
X57845238Y-129807142D01*
X57845238Y-129473809D01*
X57654761Y-129473809D01*
X58273809Y-129902380D02*
X58273809Y-129235714D01*
X58273809Y-128902380D02*
X58226190Y-128950000D01*
X58273809Y-128997619D01*
X58321428Y-128950000D01*
X58273809Y-128902380D01*
X58273809Y-128997619D01*
X58750000Y-129235714D02*
X58750000Y-129902380D01*
X58750000Y-129330952D02*
X58797619Y-129283333D01*
X58892857Y-129235714D01*
X59035714Y-129235714D01*
X59130952Y-129283333D01*
X59178571Y-129378571D01*
X59178571Y-129902380D01*
X60083333Y-129235714D02*
X60083333Y-130045238D01*
X60035714Y-130140476D01*
X59988095Y-130188095D01*
X59892857Y-130235714D01*
X59750000Y-130235714D01*
X59654761Y-130188095D01*
X60083333Y-129854761D02*
X59988095Y-129902380D01*
X59797619Y-129902380D01*
X59702380Y-129854761D01*
X59654761Y-129807142D01*
X59607142Y-129711904D01*
X59607142Y-129426190D01*
X59654761Y-129330952D01*
X59702380Y-129283333D01*
X59797619Y-129235714D01*
X59988095Y-129235714D01*
X60083333Y-129283333D01*
X60559523Y-129902380D02*
X60559523Y-128902380D01*
X60988095Y-129902380D02*
X60988095Y-129378571D01*
X60940476Y-129283333D01*
X60845238Y-129235714D01*
X60702380Y-129235714D01*
X60607142Y-129283333D01*
X60559523Y-129330952D01*
X61892857Y-129902380D02*
X61892857Y-129378571D01*
X61845238Y-129283333D01*
X61750000Y-129235714D01*
X61559523Y-129235714D01*
X61464285Y-129283333D01*
X61892857Y-129854761D02*
X61797619Y-129902380D01*
X61559523Y-129902380D01*
X61464285Y-129854761D01*
X61416666Y-129759523D01*
X61416666Y-129664285D01*
X61464285Y-129569047D01*
X61559523Y-129521428D01*
X61797619Y-129521428D01*
X61892857Y-129473809D01*
X62369047Y-129902380D02*
X62369047Y-129235714D01*
X62369047Y-129330952D02*
X62416666Y-129283333D01*
X62511904Y-129235714D01*
X62654761Y-129235714D01*
X62750000Y-129283333D01*
X62797619Y-129378571D01*
X62797619Y-129902380D01*
X62797619Y-129378571D02*
X62845238Y-129283333D01*
X62940476Y-129235714D01*
X63083333Y-129235714D01*
X63178571Y-129283333D01*
X63226190Y-129378571D01*
X63226190Y-129902380D01*
X64321428Y-128902380D02*
X64654761Y-129902380D01*
X64988095Y-128902380D01*
X65845238Y-129902380D02*
X65273809Y-129902380D01*
X65559523Y-129902380D02*
X65559523Y-128902380D01*
X65464285Y-129045238D01*
X65369047Y-129140476D01*
X65273809Y-129188095D01*
X66273809Y-129807142D02*
X66321428Y-129854761D01*
X66273809Y-129902380D01*
X66226190Y-129854761D01*
X66273809Y-129807142D01*
X66273809Y-129902380D01*
X66940476Y-128902380D02*
X67035714Y-128902380D01*
X67130952Y-128950000D01*
X67178571Y-128997619D01*
X67226190Y-129092857D01*
X67273809Y-129283333D01*
X67273809Y-129521428D01*
X67226190Y-129711904D01*
X67178571Y-129807142D01*
X67130952Y-129854761D01*
X67035714Y-129902380D01*
X66940476Y-129902380D01*
X66845238Y-129854761D01*
X66797619Y-129807142D01*
X66750000Y-129711904D01*
X66702380Y-129521428D01*
X66702380Y-129283333D01*
X66750000Y-129092857D01*
X66797619Y-128997619D01*
X66845238Y-128950000D01*
X66940476Y-128902380D01*
X56011904Y-131602380D02*
X56011904Y-130602380D01*
X56488095Y-130935714D02*
X56488095Y-131602380D01*
X56488095Y-131030952D02*
X56535714Y-130983333D01*
X56630952Y-130935714D01*
X56773809Y-130935714D01*
X56869047Y-130983333D01*
X56916666Y-131078571D01*
X56916666Y-131602380D01*
X57345238Y-131554761D02*
X57440476Y-131602380D01*
X57630952Y-131602380D01*
X57726190Y-131554761D01*
X57773809Y-131459523D01*
X57773809Y-131411904D01*
X57726190Y-131316666D01*
X57630952Y-131269047D01*
X57488095Y-131269047D01*
X57392857Y-131221428D01*
X57345238Y-131126190D01*
X57345238Y-131078571D01*
X57392857Y-130983333D01*
X57488095Y-130935714D01*
X57630952Y-130935714D01*
X57726190Y-130983333D01*
X58202380Y-130935714D02*
X58202380Y-131935714D01*
X58202380Y-130983333D02*
X58297619Y-130935714D01*
X58488095Y-130935714D01*
X58583333Y-130983333D01*
X58630952Y-131030952D01*
X58678571Y-131126190D01*
X58678571Y-131411904D01*
X58630952Y-131507142D01*
X58583333Y-131554761D01*
X58488095Y-131602380D01*
X58297619Y-131602380D01*
X58202380Y-131554761D01*
X59107142Y-131602380D02*
X59107142Y-130935714D01*
X59107142Y-130602380D02*
X59059523Y-130650000D01*
X59107142Y-130697619D01*
X59154761Y-130650000D01*
X59107142Y-130602380D01*
X59107142Y-130697619D01*
X59583333Y-131602380D02*
X59583333Y-130935714D01*
X59583333Y-131126190D02*
X59630952Y-131030952D01*
X59678571Y-130983333D01*
X59773809Y-130935714D01*
X59869047Y-130935714D01*
X60583333Y-131554761D02*
X60488095Y-131602380D01*
X60297619Y-131602380D01*
X60202380Y-131554761D01*
X60154761Y-131459523D01*
X60154761Y-131078571D01*
X60202380Y-130983333D01*
X60297619Y-130935714D01*
X60488095Y-130935714D01*
X60583333Y-130983333D01*
X60630952Y-131078571D01*
X60630952Y-131173809D01*
X60154761Y-131269047D01*
X61488095Y-131602380D02*
X61488095Y-130602380D01*
X61488095Y-131554761D02*
X61392857Y-131602380D01*
X61202380Y-131602380D01*
X61107142Y-131554761D01*
X61059523Y-131507142D01*
X61011904Y-131411904D01*
X61011904Y-131126190D01*
X61059523Y-131030952D01*
X61107142Y-130983333D01*
X61202380Y-130935714D01*
X61392857Y-130935714D01*
X61488095Y-130983333D01*
X62726190Y-131602380D02*
X62726190Y-130602380D01*
X62726190Y-130983333D02*
X62821428Y-130935714D01*
X63011904Y-130935714D01*
X63107142Y-130983333D01*
X63154761Y-131030952D01*
X63202380Y-131126190D01*
X63202380Y-131411904D01*
X63154761Y-131507142D01*
X63107142Y-131554761D01*
X63011904Y-131602380D01*
X62821428Y-131602380D01*
X62726190Y-131554761D01*
X63535714Y-130935714D02*
X63773809Y-131602380D01*
X64011904Y-130935714D02*
X63773809Y-131602380D01*
X63678571Y-131840476D01*
X63630952Y-131888095D01*
X63535714Y-131935714D01*
X65154761Y-131602380D02*
X65154761Y-130602380D01*
X65535714Y-130602380D01*
X65630952Y-130650000D01*
X65678571Y-130697619D01*
X65726190Y-130792857D01*
X65726190Y-130935714D01*
X65678571Y-131030952D01*
X65630952Y-131078571D01*
X65535714Y-131126190D01*
X65154761Y-131126190D01*
X66297619Y-131602380D02*
X66202380Y-131554761D01*
X66154761Y-131459523D01*
X66154761Y-130602380D01*
X67107142Y-131602380D02*
X67107142Y-131078571D01*
X67059523Y-130983333D01*
X66964285Y-130935714D01*
X66773809Y-130935714D01*
X66678571Y-130983333D01*
X67107142Y-131554761D02*
X67011904Y-131602380D01*
X66773809Y-131602380D01*
X66678571Y-131554761D01*
X66630952Y-131459523D01*
X66630952Y-131364285D01*
X66678571Y-131269047D01*
X66773809Y-131221428D01*
X67011904Y-131221428D01*
X67107142Y-131173809D01*
X67583333Y-131602380D02*
X67583333Y-130935714D01*
X67583333Y-130602380D02*
X67535714Y-130650000D01*
X67583333Y-130697619D01*
X67630952Y-130650000D01*
X67583333Y-130602380D01*
X67583333Y-130697619D01*
X68488095Y-131602380D02*
X68488095Y-130602380D01*
X68488095Y-131554761D02*
X68392857Y-131602380D01*
X68202380Y-131602380D01*
X68107142Y-131554761D01*
X68059523Y-131507142D01*
X68011904Y-131411904D01*
X68011904Y-131126190D01*
X68059523Y-131030952D01*
X68107142Y-130983333D01*
X68202380Y-130935714D01*
X68392857Y-130935714D01*
X68488095Y-130983333D01*
%LPC*%
D11*
X71431250Y-95243750D03*
X50000000Y-69050000D03*
X50000000Y-50000000D03*
X326225000Y-69050000D03*
X326225000Y-50000000D03*
X71431250Y-152393750D03*
X304793750Y-95243750D03*
X304793750Y-152393750D03*
X190493750Y-95243750D03*
X190493750Y-152393750D03*
M02*
