G04 #@! TF.GenerationSoftware,KiCad,Pcbnew,(5.1.0-0)*
G04 #@! TF.CreationDate,2019-05-29T21:10:33+01:00*
G04 #@! TF.ProjectId,tartan_bottom,74617274-616e-45f6-926f-74746f6d2e6b,V1.0*
G04 #@! TF.SameCoordinates,Original*
G04 #@! TF.FileFunction,Soldermask,Top*
G04 #@! TF.FilePolarity,Negative*
%FSLAX46Y46*%
G04 Gerber Fmt 4.6, Leading zero omitted, Abs format (unit mm)*
G04 Created by KiCad (PCBNEW (5.1.0-0)) date 2019-05-29 21:10:33*
%MOMM*%
%LPD*%
G04 APERTURE LIST*
%ADD10C,0.100000*%
G04 APERTURE END LIST*
D10*
G36*
X305406297Y-150374452D02*
G01*
X305406299Y-150374453D01*
X305406300Y-150374453D01*
X305518235Y-150420818D01*
X305788473Y-150532754D01*
X306132422Y-150762573D01*
X306424927Y-151055078D01*
X306654746Y-151399027D01*
X306813048Y-151781203D01*
X306893750Y-152186918D01*
X306893750Y-152600582D01*
X306813048Y-153006297D01*
X306654746Y-153388473D01*
X306424927Y-153732422D01*
X306132422Y-154024927D01*
X305788473Y-154254746D01*
X305518235Y-154366682D01*
X305406300Y-154413047D01*
X305406299Y-154413047D01*
X305406297Y-154413048D01*
X305000582Y-154493750D01*
X304586918Y-154493750D01*
X304181203Y-154413048D01*
X304181201Y-154413047D01*
X304181200Y-154413047D01*
X304069265Y-154366682D01*
X303799027Y-154254746D01*
X303455078Y-154024927D01*
X303162573Y-153732422D01*
X302932754Y-153388473D01*
X302774452Y-153006297D01*
X302693750Y-152600582D01*
X302693750Y-152186918D01*
X302774452Y-151781203D01*
X302932754Y-151399027D01*
X303162573Y-151055078D01*
X303455078Y-150762573D01*
X303799027Y-150532754D01*
X304069265Y-150420818D01*
X304181200Y-150374453D01*
X304181201Y-150374453D01*
X304181203Y-150374452D01*
X304586918Y-150293750D01*
X305000582Y-150293750D01*
X305406297Y-150374452D01*
X305406297Y-150374452D01*
G37*
G36*
X191106297Y-150374452D02*
G01*
X191106299Y-150374453D01*
X191106300Y-150374453D01*
X191218235Y-150420818D01*
X191488473Y-150532754D01*
X191832422Y-150762573D01*
X192124927Y-151055078D01*
X192354746Y-151399027D01*
X192513048Y-151781203D01*
X192593750Y-152186918D01*
X192593750Y-152600582D01*
X192513048Y-153006297D01*
X192354746Y-153388473D01*
X192124927Y-153732422D01*
X191832422Y-154024927D01*
X191488473Y-154254746D01*
X191218235Y-154366682D01*
X191106300Y-154413047D01*
X191106299Y-154413047D01*
X191106297Y-154413048D01*
X190700582Y-154493750D01*
X190286918Y-154493750D01*
X189881203Y-154413048D01*
X189881201Y-154413047D01*
X189881200Y-154413047D01*
X189769265Y-154366682D01*
X189499027Y-154254746D01*
X189155078Y-154024927D01*
X188862573Y-153732422D01*
X188632754Y-153388473D01*
X188474452Y-153006297D01*
X188393750Y-152600582D01*
X188393750Y-152186918D01*
X188474452Y-151781203D01*
X188632754Y-151399027D01*
X188862573Y-151055078D01*
X189155078Y-150762573D01*
X189499027Y-150532754D01*
X189769265Y-150420818D01*
X189881200Y-150374453D01*
X189881201Y-150374453D01*
X189881203Y-150374452D01*
X190286918Y-150293750D01*
X190700582Y-150293750D01*
X191106297Y-150374452D01*
X191106297Y-150374452D01*
G37*
G36*
X72043797Y-150374452D02*
G01*
X72043799Y-150374453D01*
X72043800Y-150374453D01*
X72155735Y-150420818D01*
X72425973Y-150532754D01*
X72769922Y-150762573D01*
X73062427Y-151055078D01*
X73292246Y-151399027D01*
X73450548Y-151781203D01*
X73531250Y-152186918D01*
X73531250Y-152600582D01*
X73450548Y-153006297D01*
X73292246Y-153388473D01*
X73062427Y-153732422D01*
X72769922Y-154024927D01*
X72425973Y-154254746D01*
X72155735Y-154366682D01*
X72043800Y-154413047D01*
X72043799Y-154413047D01*
X72043797Y-154413048D01*
X71638082Y-154493750D01*
X71224418Y-154493750D01*
X70818703Y-154413048D01*
X70818701Y-154413047D01*
X70818700Y-154413047D01*
X70706765Y-154366682D01*
X70436527Y-154254746D01*
X70092578Y-154024927D01*
X69800073Y-153732422D01*
X69570254Y-153388473D01*
X69411952Y-153006297D01*
X69331250Y-152600582D01*
X69331250Y-152186918D01*
X69411952Y-151781203D01*
X69570254Y-151399027D01*
X69800073Y-151055078D01*
X70092578Y-150762573D01*
X70436527Y-150532754D01*
X70706765Y-150420818D01*
X70818700Y-150374453D01*
X70818701Y-150374453D01*
X70818703Y-150374452D01*
X71224418Y-150293750D01*
X71638082Y-150293750D01*
X72043797Y-150374452D01*
X72043797Y-150374452D01*
G37*
G36*
X305406297Y-93224452D02*
G01*
X305406299Y-93224453D01*
X305406300Y-93224453D01*
X305518235Y-93270818D01*
X305788473Y-93382754D01*
X306132422Y-93612573D01*
X306424927Y-93905078D01*
X306654746Y-94249027D01*
X306813048Y-94631203D01*
X306893750Y-95036918D01*
X306893750Y-95450582D01*
X306813048Y-95856297D01*
X306654746Y-96238473D01*
X306424927Y-96582422D01*
X306132422Y-96874927D01*
X305788473Y-97104746D01*
X305518235Y-97216682D01*
X305406300Y-97263047D01*
X305406299Y-97263047D01*
X305406297Y-97263048D01*
X305000582Y-97343750D01*
X304586918Y-97343750D01*
X304181203Y-97263048D01*
X304181201Y-97263047D01*
X304181200Y-97263047D01*
X304069265Y-97216682D01*
X303799027Y-97104746D01*
X303455078Y-96874927D01*
X303162573Y-96582422D01*
X302932754Y-96238473D01*
X302774452Y-95856297D01*
X302693750Y-95450582D01*
X302693750Y-95036918D01*
X302774452Y-94631203D01*
X302932754Y-94249027D01*
X303162573Y-93905078D01*
X303455078Y-93612573D01*
X303799027Y-93382754D01*
X304069265Y-93270818D01*
X304181200Y-93224453D01*
X304181201Y-93224453D01*
X304181203Y-93224452D01*
X304586918Y-93143750D01*
X305000582Y-93143750D01*
X305406297Y-93224452D01*
X305406297Y-93224452D01*
G37*
G36*
X191106297Y-93224452D02*
G01*
X191106299Y-93224453D01*
X191106300Y-93224453D01*
X191218235Y-93270818D01*
X191488473Y-93382754D01*
X191832422Y-93612573D01*
X192124927Y-93905078D01*
X192354746Y-94249027D01*
X192513048Y-94631203D01*
X192593750Y-95036918D01*
X192593750Y-95450582D01*
X192513048Y-95856297D01*
X192354746Y-96238473D01*
X192124927Y-96582422D01*
X191832422Y-96874927D01*
X191488473Y-97104746D01*
X191218235Y-97216682D01*
X191106300Y-97263047D01*
X191106299Y-97263047D01*
X191106297Y-97263048D01*
X190700582Y-97343750D01*
X190286918Y-97343750D01*
X189881203Y-97263048D01*
X189881201Y-97263047D01*
X189881200Y-97263047D01*
X189769265Y-97216682D01*
X189499027Y-97104746D01*
X189155078Y-96874927D01*
X188862573Y-96582422D01*
X188632754Y-96238473D01*
X188474452Y-95856297D01*
X188393750Y-95450582D01*
X188393750Y-95036918D01*
X188474452Y-94631203D01*
X188632754Y-94249027D01*
X188862573Y-93905078D01*
X189155078Y-93612573D01*
X189499027Y-93382754D01*
X189769265Y-93270818D01*
X189881200Y-93224453D01*
X189881201Y-93224453D01*
X189881203Y-93224452D01*
X190286918Y-93143750D01*
X190700582Y-93143750D01*
X191106297Y-93224452D01*
X191106297Y-93224452D01*
G37*
G36*
X72043797Y-93224452D02*
G01*
X72043799Y-93224453D01*
X72043800Y-93224453D01*
X72155735Y-93270818D01*
X72425973Y-93382754D01*
X72769922Y-93612573D01*
X73062427Y-93905078D01*
X73292246Y-94249027D01*
X73450548Y-94631203D01*
X73531250Y-95036918D01*
X73531250Y-95450582D01*
X73450548Y-95856297D01*
X73292246Y-96238473D01*
X73062427Y-96582422D01*
X72769922Y-96874927D01*
X72425973Y-97104746D01*
X72155735Y-97216682D01*
X72043800Y-97263047D01*
X72043799Y-97263047D01*
X72043797Y-97263048D01*
X71638082Y-97343750D01*
X71224418Y-97343750D01*
X70818703Y-97263048D01*
X70818701Y-97263047D01*
X70818700Y-97263047D01*
X70706765Y-97216682D01*
X70436527Y-97104746D01*
X70092578Y-96874927D01*
X69800073Y-96582422D01*
X69570254Y-96238473D01*
X69411952Y-95856297D01*
X69331250Y-95450582D01*
X69331250Y-95036918D01*
X69411952Y-94631203D01*
X69570254Y-94249027D01*
X69800073Y-93905078D01*
X70092578Y-93612573D01*
X70436527Y-93382754D01*
X70706765Y-93270818D01*
X70818700Y-93224453D01*
X70818701Y-93224453D01*
X70818703Y-93224452D01*
X71224418Y-93143750D01*
X71638082Y-93143750D01*
X72043797Y-93224452D01*
X72043797Y-93224452D01*
G37*
G36*
X326837547Y-67030702D02*
G01*
X326837549Y-67030703D01*
X326837550Y-67030703D01*
X326949485Y-67077068D01*
X327219723Y-67189004D01*
X327563672Y-67418823D01*
X327856177Y-67711328D01*
X328085996Y-68055277D01*
X328244298Y-68437453D01*
X328325000Y-68843168D01*
X328325000Y-69256832D01*
X328244298Y-69662547D01*
X328085996Y-70044723D01*
X327856177Y-70388672D01*
X327563672Y-70681177D01*
X327219723Y-70910996D01*
X326949485Y-71022932D01*
X326837550Y-71069297D01*
X326837549Y-71069297D01*
X326837547Y-71069298D01*
X326431832Y-71150000D01*
X326018168Y-71150000D01*
X325612453Y-71069298D01*
X325612451Y-71069297D01*
X325612450Y-71069297D01*
X325500515Y-71022932D01*
X325230277Y-70910996D01*
X324886328Y-70681177D01*
X324593823Y-70388672D01*
X324364004Y-70044723D01*
X324205702Y-69662547D01*
X324125000Y-69256832D01*
X324125000Y-68843168D01*
X324205702Y-68437453D01*
X324364004Y-68055277D01*
X324593823Y-67711328D01*
X324886328Y-67418823D01*
X325230277Y-67189004D01*
X325500515Y-67077068D01*
X325612450Y-67030703D01*
X325612451Y-67030703D01*
X325612453Y-67030702D01*
X326018168Y-66950000D01*
X326431832Y-66950000D01*
X326837547Y-67030702D01*
X326837547Y-67030702D01*
G37*
G36*
X50612547Y-67030702D02*
G01*
X50612549Y-67030703D01*
X50612550Y-67030703D01*
X50724485Y-67077068D01*
X50994723Y-67189004D01*
X51338672Y-67418823D01*
X51631177Y-67711328D01*
X51860996Y-68055277D01*
X52019298Y-68437453D01*
X52100000Y-68843168D01*
X52100000Y-69256832D01*
X52019298Y-69662547D01*
X51860996Y-70044723D01*
X51631177Y-70388672D01*
X51338672Y-70681177D01*
X50994723Y-70910996D01*
X50724485Y-71022932D01*
X50612550Y-71069297D01*
X50612549Y-71069297D01*
X50612547Y-71069298D01*
X50206832Y-71150000D01*
X49793168Y-71150000D01*
X49387453Y-71069298D01*
X49387451Y-71069297D01*
X49387450Y-71069297D01*
X49275515Y-71022932D01*
X49005277Y-70910996D01*
X48661328Y-70681177D01*
X48368823Y-70388672D01*
X48139004Y-70044723D01*
X47980702Y-69662547D01*
X47900000Y-69256832D01*
X47900000Y-68843168D01*
X47980702Y-68437453D01*
X48139004Y-68055277D01*
X48368823Y-67711328D01*
X48661328Y-67418823D01*
X49005277Y-67189004D01*
X49275515Y-67077068D01*
X49387450Y-67030703D01*
X49387451Y-67030703D01*
X49387453Y-67030702D01*
X49793168Y-66950000D01*
X50206832Y-66950000D01*
X50612547Y-67030702D01*
X50612547Y-67030702D01*
G37*
G36*
X326837547Y-47980702D02*
G01*
X326837549Y-47980703D01*
X326837550Y-47980703D01*
X326949485Y-48027068D01*
X327219723Y-48139004D01*
X327563672Y-48368823D01*
X327856177Y-48661328D01*
X328085996Y-49005277D01*
X328244298Y-49387453D01*
X328325000Y-49793168D01*
X328325000Y-50206832D01*
X328244298Y-50612547D01*
X328085996Y-50994723D01*
X327856177Y-51338672D01*
X327563672Y-51631177D01*
X327219723Y-51860996D01*
X326949485Y-51972932D01*
X326837550Y-52019297D01*
X326837549Y-52019297D01*
X326837547Y-52019298D01*
X326431832Y-52100000D01*
X326018168Y-52100000D01*
X325612453Y-52019298D01*
X325612451Y-52019297D01*
X325612450Y-52019297D01*
X325500515Y-51972932D01*
X325230277Y-51860996D01*
X324886328Y-51631177D01*
X324593823Y-51338672D01*
X324364004Y-50994723D01*
X324205702Y-50612547D01*
X324125000Y-50206832D01*
X324125000Y-49793168D01*
X324205702Y-49387453D01*
X324364004Y-49005277D01*
X324593823Y-48661328D01*
X324886328Y-48368823D01*
X325230277Y-48139004D01*
X325500515Y-48027068D01*
X325612450Y-47980703D01*
X325612451Y-47980703D01*
X325612453Y-47980702D01*
X326018168Y-47900000D01*
X326431832Y-47900000D01*
X326837547Y-47980702D01*
X326837547Y-47980702D01*
G37*
G36*
X50612547Y-47980702D02*
G01*
X50612549Y-47980703D01*
X50612550Y-47980703D01*
X50724485Y-48027068D01*
X50994723Y-48139004D01*
X51338672Y-48368823D01*
X51631177Y-48661328D01*
X51860996Y-49005277D01*
X52019298Y-49387453D01*
X52100000Y-49793168D01*
X52100000Y-50206832D01*
X52019298Y-50612547D01*
X51860996Y-50994723D01*
X51631177Y-51338672D01*
X51338672Y-51631177D01*
X50994723Y-51860996D01*
X50724485Y-51972932D01*
X50612550Y-52019297D01*
X50612549Y-52019297D01*
X50612547Y-52019298D01*
X50206832Y-52100000D01*
X49793168Y-52100000D01*
X49387453Y-52019298D01*
X49387451Y-52019297D01*
X49387450Y-52019297D01*
X49275515Y-51972932D01*
X49005277Y-51860996D01*
X48661328Y-51631177D01*
X48368823Y-51338672D01*
X48139004Y-50994723D01*
X47980702Y-50612547D01*
X47900000Y-50206832D01*
X47900000Y-49793168D01*
X47980702Y-49387453D01*
X48139004Y-49005277D01*
X48368823Y-48661328D01*
X48661328Y-48368823D01*
X49005277Y-48139004D01*
X49275515Y-48027068D01*
X49387450Y-47980703D01*
X49387451Y-47980703D01*
X49387453Y-47980702D01*
X49793168Y-47900000D01*
X50206832Y-47900000D01*
X50612547Y-47980702D01*
X50612547Y-47980702D01*
G37*
M02*
